<svg width="170" height="27" viewBox="0 0 170 27" fill="none" xmlns="http://www.w3.org/2000/svg">
<g clip-path="url(#clip0_7587_63242)">
<path d="M123.683 16.5835H129.081V20.3243H118.852V2.74341H123.683V16.5835Z" fill="white"/>
<path d="M131.338 4.32615C130.821 3.852 130.562 3.25851 130.562 2.54239C130.562 1.81155 130.821 1.20498 131.338 0.72266C131.855 0.241976 132.54 0 133.395 0C134.234 0 134.911 0.241976 135.428 0.72266C135.945 1.20498 136.204 1.81155 136.204 2.54239C136.204 3.25687 135.945 3.852 135.428 4.32615C134.911 4.80029 134.232 5.03736 133.395 5.03736C132.54 5.03736 131.855 4.80029 131.338 4.32615ZM135.787 6.3339V20.3244H130.955V6.3339H135.787Z" fill="#fff"/>
<path d="M151.389 7.81853C152.326 8.89108 152.793 10.3413 152.793 12.1708V20.3261H147.962V12.8183C147.962 12.0204 147.756 11.3926 147.346 10.9348C146.935 10.4786 146.384 10.2497 145.694 10.2497C144.97 10.2497 144.405 10.4786 143.994 10.9348C143.584 11.3926 143.379 12.0204 143.379 12.8183V20.3245H138.547V6.33398H143.379V8.32865C143.805 7.69755 144.381 7.1858 145.104 6.79504C145.827 6.40428 146.657 6.20972 147.593 6.20972C149.186 6.20972 150.452 6.74599 151.389 7.81853Z" fill="#fff"/>
<path d="M164.107 20.3243L160.285 14.5888V20.3243H155.453V1.87036H160.285V11.8208L164.105 6.33385H169.897L164.449 13.3659L169.995 20.3243H164.107Z" fill="#fff"/>
<path d="M4.80589 2.46558V12.6662C4.80589 13.6145 5.02405 14.3453 5.45874 14.8603C5.89344 15.3753 6.55599 15.6337 7.44316 15.6337C8.33032 15.6337 8.99933 15.3721 9.45181 14.8473C9.90428 14.3241 10.1289 13.5965 10.1289 12.6646V2.46558H14.9606V12.6662C14.9606 14.2783 14.6229 15.6549 13.9507 16.7929C13.2768 17.9325 12.3606 18.7875 11.2019 19.3614C10.0433 19.9353 8.75694 20.2214 7.34458 20.2214C5.93061 20.2214 4.67015 19.9353 3.5616 19.3614C2.45304 18.7875 1.58203 17.9357 0.948574 16.806C0.31673 15.6746 0 14.2946 0 12.6646V2.46558H4.80589Z" fill="#fff"/>
<path d="M30.4671 7.54046C31.4044 8.613 31.8714 10.0632 31.8714 11.8928V20.048H27.0396V12.5402C27.0396 11.7423 26.8344 11.1145 26.424 10.6567C26.0135 10.2006 25.4625 9.97167 24.7724 9.97167C24.0485 9.97167 23.4829 10.2006 23.0724 10.6567C22.662 11.1145 22.4568 11.7423 22.4568 12.5402V20.0464H17.625V6.0559H22.4568V8.05057C22.8834 7.41947 23.4587 6.90772 24.1826 6.51696C24.9049 6.1262 25.7356 5.93164 26.6728 5.93164C28.2645 5.93164 29.5298 6.46791 30.4671 7.54046Z" fill="#fff"/>
<path d="M37.0862 19.5855C36.1085 19.162 35.3361 18.58 34.7689 17.8393C34.2017 17.1003 33.885 16.2648 33.8203 15.3329H38.5034C38.5696 15.7825 38.7749 16.1308 39.1191 16.3809C39.4649 16.6311 39.8915 16.7553 40.4005 16.7553C40.7948 16.7553 41.1067 16.6719 41.3378 16.5052C41.5673 16.3384 41.6836 16.1226 41.6836 15.8561C41.6836 15.5062 41.4946 15.2495 41.1164 15.0828C40.7383 14.916 40.1145 14.7329 39.2435 14.5334C38.2578 14.3339 37.4352 14.1099 36.7792 13.8598C36.1215 13.6113 35.551 13.2025 35.0662 12.6385C34.5814 12.0728 34.339 11.3092 34.339 10.3446C34.339 9.51402 34.5604 8.7603 35.0048 8.08832C35.4492 7.41471 36.1021 6.87844 36.965 6.4795C37.8279 6.08057 38.867 5.8811 40.0838 5.8811C41.8905 5.8811 43.3125 6.33072 44.3484 7.22832C45.3842 8.12593 45.9837 9.30638 46.1469 10.7697H41.7838C41.7014 10.3201 41.5091 9.97508 41.2053 9.73474C40.9015 9.4944 40.4943 9.37341 39.9852 9.37341C39.5909 9.37341 39.2904 9.44862 39.0851 9.5974C38.8799 9.74782 38.7765 9.95546 38.7765 10.2203C38.7765 10.5539 38.9656 10.8057 39.3437 10.9806C39.7218 11.1555 40.3294 11.3338 41.1681 11.5169C42.17 11.7327 43.0039 11.9747 43.6696 12.2395C44.3354 12.506 44.9188 12.9344 45.4197 13.5246C45.9207 14.1148 46.1712 14.9176 46.1712 15.9313C46.1712 16.7455 45.9369 17.478 45.4682 18.1254C44.9996 18.7745 44.3338 19.2846 43.4709 19.659C42.608 20.0335 41.5931 20.2198 40.4264 20.2198C39.1772 20.2215 38.0638 20.0089 37.0862 19.5855Z" fill="#fff"/>
<path d="M61.3847 7.54057C62.3122 8.61312 62.7776 10.0633 62.7776 11.8929V20.0481H57.9459V12.5403C57.9459 11.7425 57.7407 11.1146 57.3302 10.6568C56.9198 10.2007 56.3687 9.97178 55.6787 9.97178C54.9547 9.97178 54.3891 10.2007 53.9787 10.6568C53.5682 11.1146 53.363 11.7425 53.363 12.5403V20.0465H48.5312V1.59253H53.363V8.05232C53.7896 7.42122 54.3698 6.90947 55.1002 6.51871C55.8306 6.12795 56.6741 5.93339 57.6259 5.93339C59.2031 5.93176 60.4571 6.46803 61.3847 7.54057Z" fill="#fff"/>
<path d="M68.1616 19.3484C67.0692 18.7664 66.2095 17.9358 65.5857 16.8551C64.9603 15.7743 64.6484 14.5023 64.6484 13.039C64.6484 11.5921 64.9652 10.3299 65.597 9.24752C66.2289 8.1668 67.0918 7.33623 68.1858 6.75418C69.2782 6.17213 70.5144 5.8811 71.8961 5.8811C73.2777 5.8811 74.5123 6.17213 75.6063 6.75418C76.6987 7.33623 77.5617 8.1668 78.1951 9.24752C78.827 10.3282 79.1437 11.5921 79.1437 13.039C79.1437 14.486 78.827 15.7531 78.1951 16.842C77.5617 17.9309 76.6955 18.7664 75.595 19.3484C74.4945 19.9305 73.2535 20.2215 71.8734 20.2215C70.4902 20.2215 69.254 19.9305 68.1616 19.3484ZM73.5589 15.2217C74.0114 14.7149 74.236 13.9873 74.236 13.039C74.236 12.0907 74.0098 11.3681 73.5589 10.8694C73.1064 10.3707 72.5521 10.1206 71.8944 10.1206C71.2368 10.1206 70.6873 10.3707 70.2429 10.8694C69.7985 11.3681 69.5771 12.0907 69.5771 13.039C69.5771 14.0037 69.7905 14.7345 70.2187 15.2332C70.6453 15.7318 71.1963 15.982 71.8702 15.982C72.5441 15.982 73.1064 15.7286 73.5589 15.2217Z" fill="#fff"/>
<path d="M87.9204 6.62978C88.6929 6.16381 89.5218 5.93164 90.4106 5.93164V11.1439H89.0548C88.0028 11.1439 87.2223 11.3516 86.7133 11.7669C86.2043 12.1822 85.9489 12.9064 85.9489 13.9365V20.0464H81.1172V6.0559H85.9489V8.52471C86.4903 7.72684 87.148 7.09574 87.9204 6.62978Z" fill="#fff"/>
<path d="M100.296 15.8822V20.0465H98.2019C94.6694 20.0465 92.9031 18.2758 92.9031 14.7344V10.1205H91.2031V6.05598H92.9031V2.66504H97.7591V6.05598H100.274V10.1205H97.7591V14.8096C97.7591 15.1922 97.8448 15.4669 98.0177 15.632C98.1906 15.7988 98.4815 15.8806 98.8919 15.8806H100.296V15.8822Z" fill="#fff"/>
<path d="M117.131 26.9999H102.016V22.1113H117.133V26.9999H117.131Z" fill="url(#paint0_linear_7587_63242)"/>
</g>
<defs>
<linearGradient id="paint0_linear_7587_63242" x1="102.015" y1="24.5556" x2="117.132" y2="24.5556" gradientUnits="userSpaceOnUse">
<stop stop-color="#6D1CFF"/>
<stop offset="1" stop-color="#D62FBB"/>
</linearGradient>
<clipPath id="clip0_7587_63242">
<rect width="170" height="27" fill="white"/>
</clipPath>
</defs>
</svg>
